<svg width="10" height="10" viewBox="0 0 10 10" fill="none" xmlns="http://www.w3.org/2000/svg">
<path fill-rule="evenodd" clip-rule="evenodd" d="M3.74396 1.52721C3.6875 1.26372 3.31152 1.26371 3.25506 1.52721L2.6578 4.31443C2.5096 5.00603 1.8984 5.50013 1.1911 5.50013H0.499512C0.223369 5.50013 -0.000488281 5.27628 -0.000488281 5.00013C-0.000488281 4.72399 0.223369 4.50013 0.499512 4.50013H1.1911C1.42686 4.50013 1.6306 4.33543 1.68 4.1049L2.27726 1.31768C2.55957 0.000233054 4.43945 0.000220895 4.72177 1.31768L6.25506 8.47306C6.31152 8.73656 6.6875 8.73654 6.74396 8.47306L7.34122 5.68584C7.48943 4.99423 8.10062 4.50013 8.80793 4.50013H9.49951C9.77565 4.50013 9.99951 4.72399 9.99951 5.00013C9.99951 5.27628 9.77565 5.50013 9.49951 5.50013H8.80793C8.57216 5.50013 8.36843 5.66483 8.31903 5.89537L7.72176 8.68259C7.43945 10 5.55957 10 5.27726 8.68259L3.74396 1.52721Z" fill="#6F767E"/>
</svg>
