<svg width="10" height="10" viewBox="0 0 10 10" fill="none" xmlns="http://www.w3.org/2000/svg">
<path fill-rule="evenodd" clip-rule="evenodd" d="M2.13571 1.21594C1.46796 1.38287 0.999512 1.98285 0.999512 2.67115V9H0.499512C0.223369 9 -0.000488281 9.22386 -0.000488281 9.5C-0.000488281 9.77614 0.223369 10 0.499512 10H9.49951C9.77565 10 9.99951 9.77614 9.99951 9.5C9.99951 9.22386 9.77565 9 9.49951 9H8.99951V4.5C8.99951 3.67157 8.32794 3 7.49951 3H6.99951V1.92115C6.99951 0.945292 6.08243 0.229255 5.13571 0.465935L2.13571 1.21594ZM7.99951 4.5V9H6.99951V4H7.49951C7.77565 4 7.99951 4.22386 7.99951 4.5ZM3.49951 7C3.22337 7 2.99951 7.22386 2.99951 7.5C2.99951 7.77614 3.22337 8 3.49951 8H4.49951C4.77565 8 4.99951 7.77614 4.99951 7.5C4.99951 7.22386 4.77565 7 4.49951 7H3.49951ZM2.99951 5.5C2.99951 5.22386 3.22337 5 3.49951 5H4.49951C4.77565 5 4.99951 5.22386 4.99951 5.5C4.99951 5.77614 4.77565 6 4.49951 6H3.49951C3.22337 6 2.99951 5.77614 2.99951 5.5ZM3.49951 3C3.22337 3 2.99951 3.22386 2.99951 3.5C2.99951 3.77614 3.22337 4 3.49951 4H4.49951C4.77565 4 4.99951 3.77614 4.99951 3.5C4.99951 3.22386 4.77565 3 4.49951 3H3.49951Z" fill="#6F767E"/>
</svg>
