<svg width="10" height="10" viewBox="0 0 10 10" fill="none" xmlns="http://www.w3.org/2000/svg">
<path d="M5 10C7.76142 10 10 7.76142 10 5C10 4.28459 9.84975 3.60426 9.57908 2.98887C9.44829 2.69152 9.06292 2.64418 8.83322 2.87388L5.20711 6.5C4.81658 6.89052 4.18342 6.89053 3.79289 6.5L2.39645 5.10355C2.20118 4.90829 2.20118 4.59171 2.39645 4.39645C2.59171 4.20118 2.90829 4.20118 3.10355 4.39645L4.5 5.79289L8.34099 1.95461C8.53065 1.76508 8.53868 1.45752 8.33917 1.27839C7.45388 0.483544 6.28341 0 5 0C2.23858 0 0 2.23858 0 5C0 7.76142 2.23858 10 5 10Z" fill="#121212"/>
</svg>
