<svg width="10" height="10" viewBox="0 0 10 10" fill="none" xmlns="http://www.w3.org/2000/svg">
<path fill-rule="evenodd" clip-rule="evenodd" d="M4.99951 10C7.76094 10 9.99951 7.76142 9.99951 5C9.99951 2.23858 7.76094 0 4.99951 0C2.23809 0 -0.000488281 2.23858 -0.000488281 5C-0.000488281 7.76142 2.23809 10 4.99951 10ZM5.49951 2.5C5.49951 2.22386 5.27565 2 4.99951 2C4.72337 2 4.49951 2.22386 4.49951 2.5V4.79289C4.49951 5.05811 4.60487 5.31246 4.79241 5.5L5.89596 6.60355C6.09122 6.79882 6.4078 6.79882 6.60307 6.60355C6.79833 6.40829 6.79833 6.09171 6.60307 5.89645L5.49951 4.79289V2.5Z" fill="#6F767E"/>
</svg>
