<svg width="12" height="12" viewBox="0 0 12 12" fill="none" xmlns="http://www.w3.org/2000/svg">
<path fill-rule="evenodd" clip-rule="evenodd" d="M6.99951 2.5H2.99951C2.72337 2.5 2.49951 2.72386 2.49951 3V7C2.49951 7.27614 2.72337 7.5 2.99951 7.5H6.99951C7.27565 7.5 7.49951 7.27614 7.49951 7V3C7.49951 2.72386 7.27565 2.5 6.99951 2.5ZM2.99951 1.5C2.17108 1.5 1.49951 2.17157 1.49951 3V7C1.49951 7.82843 2.17108 8.5 2.99951 8.5H6.99951C7.82794 8.5 8.49951 7.82843 8.49951 7V3C8.49951 2.17157 7.82794 1.5 6.99951 1.5H2.99951Z" fill="#6F767E"/>
<path d="M3.49951 5C3.49951 4.17157 4.17108 3.5 4.99951 3.5H8.99951C9.82794 3.5 10.4995 4.17157 10.4995 5V9C10.4995 9.82843 9.82794 10.5 8.99951 10.5H4.99951C4.17108 10.5 3.49951 9.82843 3.49951 9V5Z" fill="#6F767E"/>
</svg>
