<svg width="12" height="12" viewBox="0 0 12 12" fill="none" xmlns="http://www.w3.org/2000/svg">
<path fill-rule="evenodd" clip-rule="evenodd" d="M6 1C6.27614 1 6.5 1.22386 6.5 1.5V2.03095C8.30936 2.25657 9.74343 3.69064 9.96905 5.5H10.5C10.7761 5.5 11 5.72386 11 6C11 6.27614 10.7761 6.5 10.5 6.5H9.96905C9.74343 8.30936 8.30936 9.74343 6.5 9.96905V10.5C6.5 10.7761 6.27614 11 6 11C5.72386 11 5.5 10.7761 5.5 10.5V9.96905C3.69064 9.74343 2.25657 8.30936 2.03095 6.5H1.5C1.22386 6.5 1 6.27614 1 6C1 5.72386 1.22386 5.5 1.5 5.5H2.03095C2.25657 3.69064 3.69064 2.25657 5.5 2.03095V1.5C5.5 1.22386 5.72386 1 6 1ZM6 9C7.65685 9 9 7.65685 9 6C9 4.34315 7.65685 3 6 3C4.34315 3 3 4.34315 3 6C3 7.65685 4.34315 9 6 9Z" fill="#121212"/>
<path d="M7.5 6C7.5 6.82843 6.82843 7.5 6 7.5C5.17157 7.5 4.5 6.82843 4.5 6C4.5 5.17157 5.17157 4.5 6 4.5C6.82843 4.5 7.5 5.17157 7.5 6Z" fill="#121212"/>
</svg>
