<svg width="12" height="12" viewBox="0 0 12 12" fill="none" xmlns="http://www.w3.org/2000/svg">
<g clip-path="url(#clip0_384_9681)">
<path fill-rule="evenodd" clip-rule="evenodd" d="M1.02854 6.19738C1.12105 5.93719 1.40697 5.80126 1.66715 5.89378L5.66464 7.3151C5.88133 7.39215 6.11796 7.39215 6.33466 7.3151L10.3321 5.89378C10.5923 5.80126 10.8782 5.93719 10.9708 6.19738C11.0633 6.45756 10.9273 6.74348 10.6672 6.83599L6.66967 8.25732C6.23628 8.41141 5.76302 8.41141 5.32963 8.25732L1.33214 6.83599C1.07196 6.74348 0.93603 6.45756 1.02854 6.19738Z" fill="#6F767E"/>
<path fill-rule="evenodd" clip-rule="evenodd" d="M1.02854 8.32238C1.12105 8.06219 1.40697 7.92626 1.66715 8.01878L5.66464 9.4401C5.88133 9.51715 6.11796 9.51715 6.33466 9.4401L10.3321 8.01878C10.5923 7.92626 10.8782 8.06219 10.9708 8.32238C11.0633 8.58256 10.9273 8.86848 10.6672 8.96099L6.66967 10.3823C6.23628 10.5364 5.76302 10.5364 5.32963 10.3823L1.33214 8.96099C1.07196 8.86848 0.93603 8.58256 1.02854 8.32238Z" fill="#6F767E"/>
<path d="M6.85416 1.65345C6.30227 1.45276 5.69734 1.45276 5.14545 1.65345L1.62115 2.93501C0.743475 3.25416 0.743468 4.49544 1.62115 4.8146L5.14545 6.09616C5.69734 6.29685 6.30227 6.29685 6.85416 6.09616L10.3785 4.8146C11.2561 4.49544 11.2561 3.25417 10.3785 2.93501L6.85416 1.65345Z" fill="#6F767E"/>
</g>
<defs>
<clipPath id="clip0_384_9681">
<rect width="12" height="12" fill="white" transform="translate(-0.000488281)"/>
</clipPath>
</defs>
</svg>
