<svg width="12" height="12" viewBox="0 0 12 12" fill="none" xmlns="http://www.w3.org/2000/svg">
<path fill-rule="evenodd" clip-rule="evenodd" d="M1.5 1C1.77614 1 2 1.22386 2 1.5V9.5C2 9.77614 2.22386 10 2.5 10H10.5C10.7761 10 11 10.2239 11 10.5C11 10.7761 10.7761 11 10.5 11H2.5C1.67157 11 1 10.3284 1 9.5V1.5C1 1.22386 1.22386 1 1.5 1Z" fill="#121212"/>
<path fill-rule="evenodd" clip-rule="evenodd" d="M10.8536 4.14645C11.0488 4.34171 11.0488 4.65829 10.8536 4.85355L8.56066 7.14645C7.97487 7.73223 7.02513 7.73223 6.43934 7.14645L5.35355 6.06066C5.15829 5.8654 4.84171 5.8654 4.64645 6.06066L3.60355 7.10355C3.40829 7.29882 3.09171 7.29882 2.89645 7.10355C2.70118 6.90829 2.70118 6.59171 2.89645 6.39645L3.93934 5.35355C4.52513 4.76777 5.47487 4.76777 6.06066 5.35355L7.14645 6.43934C7.34171 6.6346 7.65829 6.6346 7.85355 6.43934L10.1464 4.14645C10.3417 3.95118 10.6583 3.95118 10.8536 4.14645Z" fill="#121212"/>
</svg>
