<svg width="101" height="101" viewBox="0 0 101 101" fill="none" xmlns="http://www.w3.org/2000/svg">
<g clip-path="url(#clip0_1154_4169)">
<path d="M100.528 32.6855L95.6442 15.6064C93.1025 6.71055 84.8609 0.498047 75.6109 0.498047H71.5192V17.1647C71.4942 22.6147 63.2067 22.6105 63.1859 17.1647V0.498047H38.1859V17.1647C38.1609 22.6147 29.8775 22.6105 29.8525 17.1647V0.498047H25.7567C16.5067 0.498047 8.26921 6.71055 5.72338 15.6064L0.84838 32.6855C0.177547 37.1272 2.15671 41.5939 4.85255 44.7397V83.8314C4.85255 93.023 12.3275 100.498 21.5192 100.498H46.5192C55.7109 100.498 63.1859 93.023 63.1859 83.8314V48.1814C64.7609 47.2605 66.1609 46.1064 67.3525 44.7397C70.4109 48.2397 74.8484 50.498 79.8525 50.498H84.0192C85.465 50.498 86.8442 50.2564 88.1859 49.9064V96.3314C88.2109 101.781 96.4984 101.777 96.5192 96.3314V44.7397C99.2192 41.598 101.194 37.1314 100.528 32.6855ZM54.8525 71.3314H13.1859V49.9064C14.5275 50.2564 15.9067 50.498 17.3525 50.498H21.5192C26.5192 50.498 30.9609 48.2397 34.0192 44.7397C37.0775 48.2397 41.5192 50.498 46.5192 50.498H54.8525V71.3314Z" fill="#FF893B"/>
</g>
<defs>
<clipPath id="clip0_1154_4169">
<rect width="100" height="100" fill="white" transform="translate(0.685547 0.498047)"/>
</clipPath>
</defs>
</svg>
