<svg width="12" height="10" viewBox="0 0 12 10" fill="none" xmlns="http://www.w3.org/2000/svg">
<path fill-rule="evenodd" clip-rule="evenodd" d="M4.25879 9.15524e-05H7.74069C7.74707 -3.08195e-05 7.75343 -3.0215e-05 7.75977 9.15524e-05H8.72366C9.34228 9.15524e-05 9.89745 0.379865 10.1217 0.956422L11.0156 3.25521C11.2328 3.81371 10.9942 4.42621 10.4998 4.70616V8.50009C10.4998 9.32852 9.82818 10.0001 8.99976 10.0001H2.99976C2.17133 10.0001 1.49976 9.32852 1.49976 8.50009V4.70616C1.00531 4.42621 0.766687 3.8137 0.983881 3.25521L1.87785 0.956421C2.10207 0.379864 2.65724 9.15524e-05 3.27586 9.15524e-05H4.23971C4.24605 -3.0215e-05 4.25241 -3.08195e-05 4.25879 9.15524e-05ZM8.9242 3.59464C8.93183 3.59821 8.93942 3.60189 8.94697 3.60566L9.29776 3.78106C9.50318 3.88377 9.73858 3.90961 9.9614 3.85391C10.065 3.82801 10.1223 3.71714 10.0836 3.61765L9.18966 1.31887C9.11492 1.12668 8.92986 1.00009 8.72366 1.00009H8.36823L8.9242 3.59464ZM7.34553 1.00009L7.91487 3.65701L7.80684 3.70022C7.44923 3.84327 7.05029 3.84327 6.69267 3.70022L6.49976 3.62306V1.00009H7.34553ZM4.65395 1.00009H5.49976V3.62306L5.30684 3.70022C4.94923 3.84327 4.55029 3.84327 4.19267 3.70022L4.08461 3.657L4.65395 1.00009ZM3.63125 1.00009L3.07527 3.59466C3.06766 3.59823 3.06008 3.6019 3.05254 3.60566L2.70176 3.78106C2.49633 3.88377 2.26094 3.90961 2.03812 3.85391C1.93456 3.82802 1.87719 3.71714 1.91589 3.61765L2.80986 1.31887C2.8846 1.12668 3.06965 1.00009 3.27586 1.00009H3.63125ZM5.49976 6.00009C4.94747 6.00009 4.49976 6.44781 4.49976 7.00009V8.75009C4.49976 8.88816 4.61168 9.00009 4.74976 9.00009H7.24976C7.38783 9.00009 7.49976 8.88816 7.49976 8.75009V7.00009C7.49976 6.44781 7.05204 6.00009 6.49976 6.00009H5.49976Z" fill="#121212"/>
</svg>
