<svg width="101" height="101" viewBox="0 0 101 101" fill="none" xmlns="http://www.w3.org/2000/svg">
<g clip-path="url(#clip0_1154_4166)">
<path d="M67.3516 54.6648C65.411 57.2522 62.8947 59.3523 60.0019 60.7987C57.109 62.2451 53.9192 62.9981 50.6849 62.9981C47.4506 62.9981 44.2608 62.2451 41.368 60.7987C38.4751 59.3523 35.9588 57.2522 34.0182 54.6648C32.385 56.8663 30.3298 58.7206 27.9725 60.1196C25.6152 61.5186 23.003 62.4343 20.2881 62.8132C17.5732 63.1921 14.8101 63.0267 12.1598 62.3266C9.50953 61.6266 7.02515 60.4058 4.85156 58.7356V79.6648C4.85818 85.1881 7.05524 90.4833 10.9608 94.3889C14.8664 98.2945 20.1616 100.492 25.6849 100.498H75.6849C81.2082 100.492 86.5034 98.2945 90.409 94.3889C94.3146 90.4833 96.5116 85.1881 96.5182 79.6648V58.7231C94.3454 60.394 91.8617 61.6156 89.2119 62.3166C86.5621 63.0177 83.7992 63.1842 81.0844 62.8064C78.3696 62.4287 75.7571 61.5142 73.3994 60.1164C71.0416 58.7186 68.9857 56.8654 67.3516 54.6648Z" fill="#45E672"/>
<path d="M91.1016 13.5439C90.2951 9.83182 88.237 6.50975 85.2724 4.13459C82.3078 1.75942 78.6169 0.475523 74.8182 0.498095H71.5182V12.9981C71.5182 14.1032 71.0793 15.163 70.2979 15.9444C69.5164 16.7258 68.4566 17.1648 67.3516 17.1648C66.2465 17.1648 65.1867 16.7258 64.4053 15.9444C63.6239 15.163 63.1849 14.1032 63.1849 12.9981V0.498095H38.1849V12.9981C38.1849 14.1032 37.7459 15.163 36.9645 15.9444C36.1831 16.7258 35.1233 17.1648 34.0182 17.1648C32.9132 17.1648 31.8534 16.7258 31.072 15.9444C30.2906 15.163 29.8516 14.1032 29.8516 12.9981V0.498095H26.5516C22.7523 0.475727 19.0609 1.76022 16.0962 4.13621C13.1316 6.51219 11.0739 9.83521 10.2682 13.5481L4.94323 37.5814L4.85156 42.2481C4.85703 43.8896 5.18577 45.514 5.81901 47.0285C6.45225 48.5429 7.37759 49.9179 8.54219 51.0747C10.8942 53.4111 14.078 54.7175 17.3932 54.7064C19.0348 54.701 20.6591 54.3722 22.1736 53.739C23.6881 53.1057 25.063 52.1804 26.2199 51.0158C27.3767 49.8512 28.2929 48.4701 28.916 46.9515C29.5391 45.4328 29.857 43.8063 29.8516 42.1648C29.8516 41.0597 30.2906 39.9999 31.072 39.2185C31.8534 38.4371 32.9132 37.9981 34.0182 37.9981C35.1233 37.9981 36.1831 38.4371 36.9645 39.2185C37.7459 39.9999 38.1849 41.0597 38.1849 42.1648C38.1849 45.48 39.5019 48.6594 41.8461 51.0036C44.1903 53.3478 47.3697 54.6648 50.6849 54.6648C54.0001 54.6648 57.1795 53.3478 59.5237 51.0036C61.8679 48.6594 63.1849 45.48 63.1849 42.1648C63.1849 41.0597 63.6239 39.9999 64.4053 39.2185C65.1867 38.4371 66.2465 37.9981 67.3516 37.9981C68.4566 37.9981 69.5164 38.4371 70.2979 39.2185C71.0793 39.9999 71.5182 41.0597 71.5182 42.1648C71.5182 45.48 72.8352 48.6594 75.1794 51.0036C77.5236 53.3478 80.703 54.6648 84.0182 54.6648C87.3334 54.6648 90.5129 53.3478 92.8571 51.0036C95.2013 48.6594 96.5182 45.48 96.5182 42.1648V38.4439L91.1016 13.5439Z" fill="#45E672"/>
</g>
<defs>
<clipPath id="clip0_1154_4166">
<rect width="100" height="100" fill="white" transform="translate(0.685547 0.498047)"/>
</clipPath>
</defs>
</svg>
