<svg width="101" height="101" viewBox="0 0 101 101" fill="none" xmlns="http://www.w3.org/2000/svg">
<g clip-path="url(#clip0_1154_4171)">
<path d="M95.3231 17.4855C94.151 16.079 92.6837 14.9478 91.0253 14.1723C89.3669 13.3967 87.558 12.9958 85.7272 12.998H18.3605L18.1855 11.5355C17.8274 8.49562 16.3663 5.69277 14.0793 3.65837C11.7922 1.62398 8.83816 0.499471 5.77721 0.498047L4.85221 0.498047C3.74714 0.498047 2.68734 0.937034 1.90594 1.71844C1.12453 2.49984 0.685547 3.55964 0.685547 4.66471C0.685547 5.76978 1.12453 6.82959 1.90594 7.61099C2.68734 8.39239 3.74714 8.83138 4.85221 8.83138H5.77721C6.79777 8.83152 7.78279 9.2062 8.54543 9.88436C9.30808 10.5625 9.79531 11.497 9.91471 12.5105L15.648 61.2606C16.2433 66.3305 18.6792 71.0055 22.4935 74.3981C26.3078 77.7907 31.2349 79.6648 36.3397 79.6647H79.8522C80.9573 79.6647 82.0171 79.2257 82.7985 78.4443C83.5799 77.6629 84.0189 76.6031 84.0189 75.4981C84.0189 74.393 83.5799 73.3332 82.7985 72.5518C82.0171 71.7704 80.9573 71.3314 79.8522 71.3314H36.3397C33.7608 71.3241 31.2472 70.5194 29.1436 69.0275C27.04 67.5356 25.4494 65.4295 24.5897 62.9981H74.2564C79.1409 62.9984 83.8703 61.2823 87.6181 58.1499C91.366 55.0174 93.894 50.6676 94.7606 45.8605L98.0314 27.7189C98.3579 25.9189 98.2845 24.0692 97.8165 22.3007C97.3484 20.5322 96.4972 18.8884 95.3231 17.4855Z" fill="#4568E6"/>
<path d="M29.8529 100.498C34.4552 100.498 38.1862 96.7673 38.1862 92.1649C38.1862 87.5625 34.4552 83.8315 29.8529 83.8315C25.2505 83.8315 21.5195 87.5625 21.5195 92.1649C21.5195 96.7673 25.2505 100.498 29.8529 100.498Z" fill="#4568E6"/>
<path d="M71.5189 100.498C76.1213 100.498 79.8522 96.7673 79.8522 92.1649C79.8522 87.5625 76.1213 83.8315 71.5189 83.8315C66.9165 83.8315 63.1855 87.5625 63.1855 92.1649C63.1855 96.7673 66.9165 100.498 71.5189 100.498Z" fill="#4568E6"/>
</g>
<defs>
<clipPath id="clip0_1154_4171">
<rect width="100" height="100" fill="white" transform="translate(0.685547 0.498047)"/>
</clipPath>
</defs>
</svg>
