<svg width="101" height="101" viewBox="0 0 101 101" fill="none" xmlns="http://www.w3.org/2000/svg">
<g clip-path="url(#clip0_1154_4175)">
<path d="M95.5439 19.523C94.0213 18.8888 92.3445 18.7221 90.7269 19.0441C89.1093 19.3661 87.6241 20.1623 86.4605 21.3313L75.6855 32.1063L56.5772 12.998C55.0145 11.4357 52.8952 10.5581 50.6855 10.5581C48.4758 10.5581 46.3566 11.4357 44.7939 12.998L25.6855 32.1063L14.9105 21.3313C13.7451 20.1662 12.2604 19.3729 10.6441 19.0515C9.02787 18.7301 7.35259 18.8951 5.83009 19.5257C4.30759 20.1563 3.00624 21.2241 2.09053 22.5942C1.17483 23.9643 0.685899 25.5751 0.685547 27.223L0.685547 71.3313C0.692163 76.8546 2.88922 82.1498 6.7948 86.0554C10.7004 89.961 15.9956 92.158 21.5189 92.1647H79.8522C85.3755 92.158 90.6707 89.961 94.5763 86.0554C98.4819 82.1498 100.679 76.8546 100.686 71.3313V27.223C100.686 25.5749 100.198 23.9638 99.2825 22.5932C98.3673 21.2226 97.0663 20.1542 95.5439 19.523Z" fill="#FFDC42"/>
</g>
<defs>
<clipPath id="clip0_1154_4175">
<rect width="100" height="100" fill="white" transform="translate(0.685547 0.498047)"/>
</clipPath>
</defs>
</svg>
