<svg width="12" height="9" viewBox="0 0 12 9" fill="none" xmlns="http://www.w3.org/2000/svg">
<path fill-rule="evenodd" clip-rule="evenodd" d="M1.99951 0C1.17108 0 0.499512 0.671573 0.499512 1.5V6C0.499512 6.67688 0.947858 7.24905 1.56378 7.43573C1.75046 8.05166 2.32263 8.5 2.99951 8.5C3.65262 8.5 4.20824 8.0826 4.41416 7.5H7.58486C7.79078 8.0826 8.3464 8.5 8.99951 8.5C9.65683 8.5 10.2154 8.07721 10.4181 7.48873C11.0287 7.40641 11.4995 6.88318 11.4995 6.25V3.83333C11.4995 3.61696 11.4293 3.40643 11.2995 3.23333L10.2995 1.9C10.1107 1.64819 9.81427 1.5 9.49951 1.5H8.49951C8.49951 0.671573 7.82794 0 6.99951 0H1.99951ZM8.99951 2.5C8.72337 2.5 8.49951 2.72386 8.49951 3V4C8.49951 4.27614 8.72337 4.5 8.99951 4.5H9.99951C10.2757 4.5 10.4995 4.27614 10.4995 4C10.4995 3.89181 10.4644 3.78655 10.3995 3.7L9.64951 2.7C9.55508 2.5741 9.40689 2.5 9.24951 2.5H8.99951ZM3.49951 7C3.49951 7.27614 3.27565 7.5 2.99951 7.5C2.72337 7.5 2.49951 7.27614 2.49951 7C2.49951 6.72386 2.72337 6.5 2.99951 6.5C3.27565 6.5 3.49951 6.72386 3.49951 7ZM8.99951 7.5C9.27565 7.5 9.49951 7.27614 9.49951 7C9.49951 6.72386 9.27565 6.5 8.99951 6.5C8.72337 6.5 8.49951 6.72386 8.49951 7C8.49951 7.27614 8.72337 7.5 8.99951 7.5Z" fill="#6F767E"/>
</svg>
