<svg width="20" height="20" viewBox="0 0 20 20" fill="none" xmlns="http://www.w3.org/2000/svg">
<path fill-rule="evenodd" clip-rule="evenodd" d="M10.0001 0C7.79092 0 6.00006 1.79086 6.00006 4H4.64839C3.13542 4 1.85922 5.12661 1.67156 6.6279L0.421558 16.6279C0.197738 18.4185 1.5939 20 3.39839 20H16.6017C18.4062 20 19.8024 18.4185 19.5785 16.6279L18.3285 6.6279C18.1409 5.12661 16.8647 4 15.3517 4H14.0001C14.0001 1.79086 12.2092 0 10.0001 0ZM12.0001 6V7C12.0001 7.55228 12.4478 8 13.0001 8C13.5523 8 14.0001 7.55228 14.0001 7V6H15.3517C15.856 6 16.2814 6.37554 16.344 6.87597L17.594 16.876C17.6686 17.4728 17.2032 18 16.6017 18H3.39839C2.79689 18 2.33151 17.4728 2.40611 16.876L3.65611 6.87597C3.71867 6.37554 4.14407 6 4.64839 6H6.00006V7C6.00006 7.55228 6.44778 8 7.00006 8C7.55235 8 8.00006 7.55228 8.00006 7V6H12.0001ZM12.0001 4C12.0001 2.89543 11.1046 2 10.0001 2C8.89549 2 8.00006 2.89543 8.00006 4H12.0001Z" fill="#1A1D1F"/>
</svg>
